<mxfile host="app.diagrams.net" modified="2020-10-29T12:59:53.806Z" agent="5.0 (Windows)" etag="riWY-5SPw2j0sn5brCzy" version="13.8.6" type="github">
  <diagram id="iBCdUziiuXJ5Pv-wzdKt" name="USE CASE">
    <mxGraphModel dx="1221" dy="644" grid="1" gridSize="10" guides="1" tooltips="1" connect="1" arrows="1" fold="1" page="1" pageScale="1" pageWidth="850" pageHeight="1100" math="0" shadow="0">
      <root>
        <mxCell id="0" />
        <mxCell id="1" parent="0" />
        <mxCell id="4AU3qeAFscPOURH3v-Yv-2" value="&lt;font style=&quot;font-size: 15px&quot;&gt;Admin TPP&lt;/font&gt;" style="shape=umlActor;verticalLabelPosition=bottom;verticalAlign=top;html=1;" vertex="1" parent="1">
          <mxGeometry x="100" y="390" width="30" height="60" as="geometry" />
        </mxCell>
        <mxCell id="4AU3qeAFscPOURH3v-Yv-4" value="&lt;div style=&quot;font-size: 15px&quot;&gt;&lt;font style=&quot;font-size: 15px&quot;&gt;Master&lt;/font&gt;&lt;/div&gt;&lt;div style=&quot;font-size: 15px&quot;&gt;&lt;font style=&quot;font-size: 15px&quot;&gt;Shiping Lines&lt;br&gt;&lt;/font&gt;&lt;/div&gt;" style="ellipse;whiteSpace=wrap;html=1;" vertex="1" parent="1">
          <mxGeometry x="290" y="605" width="140" height="70" as="geometry" />
        </mxCell>
        <mxCell id="4AU3qeAFscPOURH3v-Yv-5" value="&lt;div&gt;&lt;font style=&quot;font-size: 15px&quot;&gt;Master &lt;br&gt;&lt;/font&gt;&lt;/div&gt;&lt;div&gt;&lt;font style=&quot;font-size: 15px&quot;&gt;Principal&lt;/font&gt;&lt;/div&gt;" style="ellipse;whiteSpace=wrap;html=1;" vertex="1" parent="1">
          <mxGeometry x="290" y="345" width="140" height="70" as="geometry" />
        </mxCell>
        <mxCell id="4AU3qeAFscPOURH3v-Yv-6" value="&lt;font style=&quot;font-size: 15px&quot;&gt;Login&lt;/font&gt;" style="ellipse;whiteSpace=wrap;html=1;" vertex="1" parent="1">
          <mxGeometry x="570" y="415" width="140" height="70" as="geometry" />
        </mxCell>
        <mxCell id="4AU3qeAFscPOURH3v-Yv-9" value="&lt;div style=&quot;font-size: 15px&quot;&gt;&lt;font style=&quot;font-size: 15px&quot;&gt;Master&lt;/font&gt;&lt;/div&gt;&lt;div style=&quot;font-size: 15px&quot;&gt;&lt;font style=&quot;font-size: 15px&quot;&gt;Refferences&lt;br&gt;&lt;/font&gt;&lt;/div&gt;" style="ellipse;whiteSpace=wrap;html=1;" vertex="1" parent="1">
          <mxGeometry x="290" y="215" width="140" height="70" as="geometry" />
        </mxCell>
        <mxCell id="4AU3qeAFscPOURH3v-Yv-10" value="&lt;font style=&quot;font-size: 15px&quot;&gt;Master Beacukai&lt;/font&gt;" style="ellipse;whiteSpace=wrap;html=1;" vertex="1" parent="1">
          <mxGeometry x="290" y="475" width="140" height="70" as="geometry" />
        </mxCell>
        <mxCell id="4AU3qeAFscPOURH3v-Yv-18" value="" style="endArrow=classic;html=1;entryX=0;entryY=0.5;entryDx=0;entryDy=0;" edge="1" parent="1" target="4AU3qeAFscPOURH3v-Yv-5">
          <mxGeometry width="50" height="50" relative="1" as="geometry">
            <mxPoint x="120" y="420" as="sourcePoint" />
            <mxPoint x="180" y="360" as="targetPoint" />
          </mxGeometry>
        </mxCell>
        <mxCell id="4AU3qeAFscPOURH3v-Yv-19" value="" style="endArrow=classic;html=1;entryX=0;entryY=0.5;entryDx=0;entryDy=0;exitX=0.5;exitY=0.5;exitDx=0;exitDy=0;exitPerimeter=0;" edge="1" parent="1" source="4AU3qeAFscPOURH3v-Yv-2" target="4AU3qeAFscPOURH3v-Yv-9">
          <mxGeometry width="50" height="50" relative="1" as="geometry">
            <mxPoint x="120" y="389.9999999999998" as="sourcePoint" />
            <mxPoint x="170" y="339.9999999999998" as="targetPoint" />
          </mxGeometry>
        </mxCell>
        <mxCell id="4AU3qeAFscPOURH3v-Yv-20" value="" style="endArrow=classic;html=1;entryX=0;entryY=0.5;entryDx=0;entryDy=0;exitX=0.5;exitY=0.5;exitDx=0;exitDy=0;exitPerimeter=0;" edge="1" parent="1" source="4AU3qeAFscPOURH3v-Yv-2" target="4AU3qeAFscPOURH3v-Yv-10">
          <mxGeometry width="50" height="50" relative="1" as="geometry">
            <mxPoint x="130" y="439.9999999999998" as="sourcePoint" />
            <mxPoint x="180" y="389.9999999999998" as="targetPoint" />
          </mxGeometry>
        </mxCell>
        <mxCell id="4AU3qeAFscPOURH3v-Yv-21" value="" style="endArrow=classic;html=1;entryX=0;entryY=0.5;entryDx=0;entryDy=0;exitX=0.5;exitY=0.5;exitDx=0;exitDy=0;exitPerimeter=0;" edge="1" parent="1" source="4AU3qeAFscPOURH3v-Yv-2" target="4AU3qeAFscPOURH3v-Yv-4">
          <mxGeometry width="50" height="50" relative="1" as="geometry">
            <mxPoint x="130" y="449.9999999999998" as="sourcePoint" />
            <mxPoint x="180" y="399.9999999999998" as="targetPoint" />
          </mxGeometry>
        </mxCell>
        <mxCell id="4AU3qeAFscPOURH3v-Yv-22" value="" style="endArrow=classic;html=1;rounded=1;dashed=1;entryX=0.232;entryY=0.027;entryDx=0;entryDy=0;entryPerimeter=0;" edge="1" parent="1" target="4AU3qeAFscPOURH3v-Yv-6">
          <mxGeometry width="50" height="50" relative="1" as="geometry">
            <mxPoint x="430" y="249.99999999999977" as="sourcePoint" />
            <mxPoint x="480" y="199.99999999999977" as="targetPoint" />
          </mxGeometry>
        </mxCell>
        <mxCell id="4AU3qeAFscPOURH3v-Yv-39" value="&lt;font style=&quot;font-size: 15px&quot;&gt;include&lt;/font&gt;" style="edgeLabel;html=1;align=center;verticalAlign=middle;resizable=0;points=[];" vertex="1" connectable="0" parent="4AU3qeAFscPOURH3v-Yv-22">
          <mxGeometry x="0.1659" y="-3" relative="1" as="geometry">
            <mxPoint as="offset" />
          </mxGeometry>
        </mxCell>
        <mxCell id="4AU3qeAFscPOURH3v-Yv-40" value="" style="endArrow=classic;html=1;rounded=1;dashed=1;" edge="1" parent="1" target="4AU3qeAFscPOURH3v-Yv-6">
          <mxGeometry width="50" height="50" relative="1" as="geometry">
            <mxPoint x="430" y="377.9999999999998" as="sourcePoint" />
            <mxPoint x="622.4799999999998" y="549.8899999999999" as="targetPoint" />
          </mxGeometry>
        </mxCell>
        <mxCell id="4AU3qeAFscPOURH3v-Yv-41" value="&lt;font style=&quot;font-size: 15px&quot;&gt;include&lt;/font&gt;" style="edgeLabel;html=1;align=center;verticalAlign=middle;resizable=0;points=[];" vertex="1" connectable="0" parent="4AU3qeAFscPOURH3v-Yv-40">
          <mxGeometry x="0.1659" y="-3" relative="1" as="geometry">
            <mxPoint as="offset" />
          </mxGeometry>
        </mxCell>
        <mxCell id="4AU3qeAFscPOURH3v-Yv-42" value="" style="endArrow=classic;html=1;rounded=1;dashed=1;entryX=0.089;entryY=0.85;entryDx=0;entryDy=0;entryPerimeter=0;" edge="1" parent="1" target="4AU3qeAFscPOURH3v-Yv-6">
          <mxGeometry width="50" height="50" relative="1" as="geometry">
            <mxPoint x="430" y="498.1099999999998" as="sourcePoint" />
            <mxPoint x="622.4799999999998" y="669.9999999999999" as="targetPoint" />
          </mxGeometry>
        </mxCell>
        <mxCell id="4AU3qeAFscPOURH3v-Yv-43" value="&lt;font style=&quot;font-size: 15px&quot;&gt;include&lt;/font&gt;" style="edgeLabel;html=1;align=center;verticalAlign=middle;resizable=0;points=[];" vertex="1" connectable="0" parent="4AU3qeAFscPOURH3v-Yv-42">
          <mxGeometry x="0.1659" y="-3" relative="1" as="geometry">
            <mxPoint as="offset" />
          </mxGeometry>
        </mxCell>
        <mxCell id="4AU3qeAFscPOURH3v-Yv-44" value="" style="endArrow=classic;html=1;rounded=1;dashed=1;entryX=0.291;entryY=0.951;entryDx=0;entryDy=0;entryPerimeter=0;" edge="1" parent="1" target="4AU3qeAFscPOURH3v-Yv-6">
          <mxGeometry width="50" height="50" relative="1" as="geometry">
            <mxPoint x="430" y="629.9999999999998" as="sourcePoint" />
            <mxPoint x="622.4799999999998" y="801.8899999999999" as="targetPoint" />
          </mxGeometry>
        </mxCell>
        <mxCell id="4AU3qeAFscPOURH3v-Yv-45" value="&lt;font style=&quot;font-size: 16px&quot;&gt;include&lt;/font&gt;" style="edgeLabel;html=1;align=center;verticalAlign=middle;resizable=0;points=[];" vertex="1" connectable="0" parent="4AU3qeAFscPOURH3v-Yv-44">
          <mxGeometry x="0.1659" y="-3" relative="1" as="geometry">
            <mxPoint as="offset" />
          </mxGeometry>
        </mxCell>
      </root>
    </mxGraphModel>
  </diagram>
</mxfile>
